<?xml version="1.0" standalone="no"?>
<!DOCTYPE svg PUBLIC "-//W3C//DTD SVG 20010904//EN"
 "http://www.w3.org/TR/2001/REC-SVG-20010904/DTD/svg10.dtd">
<svg version="1.0" xmlns="http://www.w3.org/2000/svg"
 width="804.000000pt" height="562.000000pt" viewBox="0 0 804.000000 562.000000"
 preserveAspectRatio="xMidYMid meet">

<g transform="translate(0.000000,562.000000) scale(0.100000,-0.100000)"
fill="#000000" stroke="none">
<path d="M3916 5405 c-241 -10 -321 -16 -332 -26 -15 -16 -253 -1190 -270
-1331 -9 -81 -12 -80 232 -72 256 9 244 2 264 151 7 56 16 106 19 111 3 5 76
12 163 16 l156 6 22 -97 c13 -54 29 -110 36 -125 14 -27 18 -28 88 -28 40 0
141 3 225 7 126 5 153 9 161 23 6 11 -47 224 -171 681 -98 365 -179 665 -179
666 0 13 -39 33 -63 32 -18 -1 -175 -7 -351 -14z m89 -485 c19 -85 45 -195 56
-243 12 -48 19 -90 17 -92 -10 -11 -208 -18 -208 -7 0 5 18 124 40 264 22 139
40 258 41 263 1 25 21 -42 54 -185z"/>
<path d="M1778 5400 c-190 -34 -366 -150 -472 -308 -139 -209 -152 -477 -35
-702 75 -144 178 -244 326 -313 342 -161 749 -17 917 325 101 204 101 406 -1
618 -38 79 -59 107 -132 180 -94 93 -174 142 -296 180 -79 24 -232 34 -307 20z
m195 -412 c56 -17 139 -96 168 -160 34 -78 33 -192 -3 -270 -48 -104 -141
-168 -243 -168 -27 0 -64 11 -104 31 -147 73 -201 267 -120 428 60 121 180
176 302 139z"/>
<path d="M6994 5385 c-337 -73 -571 -384 -551 -731 23 -394 402 -704 787 -645
165 26 284 86 400 201 87 87 140 172 177 285 37 112 39 284 4 395 -66 216
-219 382 -421 463 -121 47 -269 60 -396 32z m264 -401 c52 -21 107 -78 134
-138 18 -41 23 -69 23 -141 0 -78 -4 -98 -28 -150 -52 -111 -133 -173 -239
-182 -82 -8 -135 14 -198 83 -124 137 -117 338 18 473 79 79 186 99 290 55z"/>
</g>
</svg>
